# xmcd
#
# Track frame offsets:
#	150
#	16265
#	27312
#	37725
#	46888
#	57904
#	66956
#	74883
#	86777
#	97173
#	105908
#
# Disc length: 1552 seconds
#
# Revision: 0
# Processed by: cddbd v1.5.1PL0 Copyright (c) Steve Scherf et al.
# Submitted via: dBpowerAMP V4.0
#
DISCID=91060e0b
DTITLE=Merle Haggard - Totally Instrumental...With One Exception
DYEAR=1973
DGENRE=Country
TTITLE0=Cotton Picker
TTITLE1=When The Roses Die
TTITLE2=Sittin' On Top Of The World
TTITLE3=Champagne
TTITLE4=It's Only Love
TTITLE5=Cherokee Fiddle
TTITLE6=Country Gas
TTITLE7=See The Sunset
TTITLE8=Goes Without Saying
TTITLE9=Over The Rainbow
TTITLE10=Swing High
EXTD=Submitted faithfully by +Sound Man+\nPlease visit my Merle Haggard Discography site at:\nhttp://www.angelfire.com/stars4/anxietyfriend/merlehaggard.htm
EXTT0=
EXTT1=
EXTT2=
EXTT3=
EXTT4=
EXTT5=
EXTT6=
EXTT7=
EXTT8=
EXTT9=
EXTT10=
PLAYORDER=
